# xmcd CD database file
#
# Track frame offsets:
#	150
#	11836
#	25686
#	37388
#	49000
#	62233
#	75035
#	85300
#	98787
#	111967
#
# Disc length: 1621 seconds
#
# Revision: 0
# Processed by: cddbd v1.5.2PL0 Copyright (c) Steve Scherf et al.
# Submitted via: CDex 1.70beta2
#
DISCID=7706530a
DTITLE=Dolly Parton - Best Of Dolly Parton
DYEAR=1900
DGENRE=Country
TTITLE0=Jolene
TTITLE1=Lonely Comin' Down
TTITLE2=The Bargain Store
TTITLE3=Touch Your Woman
TTITLE4=When I Sing For Him
TTITLE5=I will Always Love You
TTITLE6=Love Is Like A Butterfly
TTITLE7=Coat Of Many Colors
TTITLE8=My Tennessee Mountain Home
TTITLE9=Traveling Man
EXTD=
EXTT0=
EXTT1=
EXTT2=
EXTT3=
EXTT4=
EXTT5=
EXTT6=
EXTT7=
EXTT8=
EXTT9=
PLAYORDER=
